<svg xmlns="http://www.w3.org/2000/svg" viewBox="0 0 48 48">
  <circle cx="24" cy="24" r="24" fill="#0d1d1a" />
  <circle cx="24" cy="24" r="19" fill="none" stroke="#ac8b38" stroke-width="1" opacity="0.4" />
  <g fill="#ac8b38" stroke="#0d1d1a" stroke-width="0.75">
    <polygon points="24,24 24,9 33,14" transform="rotate(0 24 24)" />
    <polygon points="24,24 24,9 33,14" transform="rotate(60 24 24)" />
    <polygon points="24,24 24,9 33,14" transform="rotate(120 24 24)" />
    <polygon points="24,24 24,9 33,14" transform="rotate(180 24 24)" />
    <polygon points="24,24 24,9 33,14" transform="rotate(240 24 24)" />
    <polygon points="24,24 24,9 33,14" transform="rotate(300 24 24)" />
  </g>
</svg>
